<?xml version="1.0" encoding="UTF-8"?>
<svg id="a" data-name="Ebene 1" xmlns="http://www.w3.org/2000/svg" viewBox="0 0 367.15 107.95">
  <defs>
    <style>
      .b {
        fill: #e3f5f5;
      }

      .c {
        fill: #9bc6c5;
      }
    </style>
  </defs>
  <g>
    <path class="b" d="M116.55,59.21v-5.88h5.99V16.65h-5.99v-5.89h12.47v19.5c3.32-3.81,7.39-5.71,12.22-5.71s8.54,1.6,11.68,4.79c3.15,3.19,4.72,7.4,4.72,12.62s-1.54,9.23-4.61,12.66c-3.08,3.42-7.02,5.14-11.82,5.14-2.69,0-5.15-.58-7.38-1.74-2.23-1.16-3.83-2.45-4.81-3.87v5.05h-12.47ZM129.23,42.42c0,3.51,1.07,6.29,3.22,8.34,2.15,2.05,4.63,3.08,7.44,3.08,2.95,0,5.49-1.09,7.63-3.27,2.14-2.18,3.2-5.11,3.2-8.78s-1.06-6.31-3.19-8.27c-2.12-1.96-4.61-2.94-7.47-2.94s-5.32,1.02-7.52,3.05c-2.21,2.03-3.31,4.96-3.31,8.79Z"/>
    <path class="b" d="M164.33,53.32v-21.94h-6.79v-5.89h12.08v7.59c.74-1.97,1.78-3.61,3.1-4.91,1.32-1.3,2.72-2.16,4.2-2.58,1.47-.42,3.49-.63,6.04-.63h1.74v6.69h-1.32c-3.37,0-5.88.34-7.54,1.01-1.66.67-2.89,1.9-3.69,3.67-.8,1.78-1.2,4.96-1.2,9.56v7.42h7.35v5.88h-20.76v-5.88h6.79Z"/>
    <path class="b" d="M190.91,53.32v-21.94h-5.22v-5.89h11.84v27.83h5.22v5.88h-17.06v-5.88h5.22ZM189.97,14.04c0-1.07.38-2,1.13-2.79.75-.79,1.71-1.18,2.87-1.18,1.09,0,2.03.38,2.82,1.15.79.77,1.18,1.71,1.18,2.82s-.39,2.06-1.18,2.84c-.79.78-1.73,1.17-2.82,1.17s-2.06-.39-2.84-1.18c-.78-.79-1.17-1.73-1.17-2.82Z"/>
    <path class="b" d="M243.73,53.32v5.88h-12.68v-4.95c-3.3,3.67-7.31,5.5-12.05,5.5-4.39,0-8.24-1.5-11.56-4.49-3.32-2.99-4.98-7.25-4.98-12.78s1.71-9.92,5.12-13.13c3.41-3.2,7.27-4.81,11.56-4.81,4.55,0,8.52,1.81,11.91,5.43v-13.34h-6.48v-5.89h13.09v42.56h6.06ZM209.53,42.32c0,3.71,1.05,6.57,3.15,8.57,2.1,2,4.61,3,7.54,3s5.35-1.05,7.54-3.15c2.19-2.1,3.29-5.01,3.29-8.72s-1.12-6.56-3.36-8.46c-2.24-1.9-4.75-2.86-7.54-2.86-3,0-5.51,1.12-7.56,3.36-2.04,2.24-3.07,5-3.07,8.27Z"/>
    <path class="b" d="M284.19,25.5v5.89h-6.06v25.11c0,3.39-.17,5.9-.52,7.54-.35,1.64-1.19,3.31-2.52,5.01-1.34,1.71-3.34,3.14-6.01,4.3s-5.65,1.74-8.95,1.74c-4.97,0-9.4-1.5-13.3-4.49l4.32-4.81c2.93,2.27,6.11,3.41,9.54,3.41,1.9,0,3.67-.37,5.29-1.1,1.62-.73,2.84-1.62,3.64-2.66s1.32-2.04,1.55-2.98c.23-.94.35-2.52.35-4.75v-3.06c-1.04,1.32-2.68,2.58-4.91,3.76-2.23,1.18-4.67,1.78-7.31,1.78-4.83,0-8.76-1.67-11.81-5.01-3.04-3.34-4.56-7.45-4.56-12.33,0-5.34,1.68-9.65,5.03-12.94,3.36-3.29,7.24-4.93,11.65-4.93s8.43,1.78,11.91,5.33v-4.81h12.68ZM249.95,42.7c0,3.41.99,6.2,2.98,8.36s4.52,3.24,7.61,3.24,5.62-1.08,7.8-3.26c2.18-2.17,3.27-4.96,3.27-8.38s-1.09-6.24-3.27-8.34c-2.18-2.1-4.71-3.15-7.59-3.15s-5.4,1.04-7.56,3.12c-2.16,2.08-3.24,4.88-3.24,8.41Z"/>
    <path class="b" d="M290.19,53.32v-21.94h-5.22v-5.89h11.84v27.83h5.22v5.88h-17.06v-5.88h5.22ZM289.25,14.04c0-1.07.38-2,1.13-2.79.75-.79,1.71-1.18,2.87-1.18,1.09,0,2.03.38,2.82,1.15.79.77,1.18,1.71,1.18,2.82s-.39,2.06-1.18,2.84c-.79.78-1.73,1.17-2.82,1.17s-2.06-.39-2.84-1.18c-.78-.79-1.17-1.73-1.17-2.82Z"/>
    <path class="b" d="M301.2,31.38v-5.89h4.39v-5.19l6.62-6.06v11.25h6.23v5.89h-6.23v16.37c0,2.62.14,4.24.43,4.86.29.62,1.02.92,2.18.92,1.23,0,2.44-.23,3.62-.7v6.02c-1.7.6-3.39.91-5.08.91-2.02,0-3.66-.45-4.91-1.34-1.25-.89-2.04-2.01-2.37-3.36-.33-1.35-.49-3.67-.49-6.96v-16.72h-4.39Z"/>
  </g>
  <g>
    <path class="b" d="M67.42,40.29h0c0-1.69.01-3.37,0-5.06-.02-1.87-1.31-3.24-3.03-3.26,0,0,0,0,0,0,0,0,0,0,0,0-1.73-.02-3.11,1.29-3.14,3.15-.05,3.44-.05,6.89,0,10.33.03,1.86,1.41,3.18,3.13,3.15,0,0,0,0,0,0,0,0,0,0,0,0,1.73-.03,3.02-1.39,3.04-3.25h0c.02-1.69,0-3.38,0-5.06Z"/>
    <path class="b" d="M53.81,40.32v-4.87c0-.07,0-.14,0-.21-.07-1.9-1.31-3.25-3.03-3.28-1.76-.03-3.1,1.32-3.12,3.27-.04,3.35-.04,6.7,0,10.04.02,1.97,1.32,3.32,3.07,3.32s3.04-1.37,3.08-3.32h0c.03-1.66,0-3.31,0-4.97Z"/>
    <path class="b" d="M57.26,2.3C28.86,2.3,5.84,25.33,5.84,53.73s23.02,51.42,51.42,51.42,51.42-23.02,51.42-51.42S85.66,2.3,57.26,2.3ZM80.58,16.07c1.48-1.56,3.96-1.85,5.78-.66,1.87,1.22,2.77,3.68,1.66,5.61-1.13,1.97-2.69,3.7-4.05,5.54-.1-.06-.2-.12-.3-.18-.55-3.19-1.58-6.21-3.27-8.98-.36-.58-.22-.91.18-1.33ZM28.77,15.38c2.13-1.35,4.91-.73,6.25,1.43-1.81,2.95-3.01,6.16-3.61,9.73-.26-.22-.45-.34-.58-.51-1.13-1.4-2.3-2.76-3.35-4.21-1.52-2.12-.89-5.04,1.29-6.44ZM14.49,50.77c-2.59-.68-4.03-3.11-3.38-5.65.62-2.39,3.06-3.83,5.57-3.18,4.66,1.2,9.36,2.06,14.17,2.22.67.02.83.27.93.9.41,2.51.92,5.01,1.41,7.62-4.86.5-9.69.07-14.48-.9-1.42-.29-2.82-.64-4.22-1.01ZM94.48,84.57c-1.63,1.21-3.39,1.18-5.16.22-7.62-4.16-13.86-9.84-18.76-17.01-1.15-1.68-2.39-3.3-3.6-4.94-.86-1.16-1.92-1.56-3.05-1.18-1.12.38-1.72,1.32-1.72,2.77,0,9.77-.06,19.54.02,29.31.04,4.4-3.47,5.47-6.79,4.47-1.61-.48-2.51-2.01-2.52-3.79,0-4.97,0-9.94,0-14.91s0-10.08,0-15.12c0-1.89-1.32-3.17-3.01-2.76-.69.17-1.4.75-1.85,1.33-2.49,3.22-4.81,6.58-7.37,9.74-4.19,5.16-9.43,9.07-15.24,12.24-2.18,1.19-4.9.38-6.11-1.76-1.22-2.15-.58-4.86,1.6-6.14,3.63-2.14,7.15-4.43,10.34-7.21,3.32-2.89,6.31-6.07,8.98-9.57.91-1.19,1.02-2.3.26-3.61-2.18-3.77-3.29-7.92-3.66-12.19-.43-4.91-.79-9.86-.6-14.77.48-12.59,11.54-21.7,24.01-20.09,9.77,1.27,17.4,8.74,18.41,18.45.39,3.72.16,7.52.02,11.27-.17,4.35-.72,8.66-2.18,12.8-.54,1.52-1.16,3.03-1.94,4.44-.78,1.41-.65,2.55.3,3.8,5.09,6.63,11.19,12.08,18.48,16.19,1.34.76,2.46,1.67,2.82,3.25h0c.44,1.94-.1,3.59-1.7,4.77ZM101.29,50.51c-6.34,1.95-12.82,2.8-19.46,2.18.58-2.86,1.13-5.59,1.71-8.46,1.38-.11,2.9-.12,4.37-.37,3.39-.57,6.77-1.2,10.13-1.9,2.83-.59,5.18.6,5.89,3.13.62,2.22-.47,4.74-2.65,5.41Z"/>
  </g>
  <g>
    <path class="c" d="M129.56,93.78c0,.09-.02.16-.05.22-.03.06-.11.11-.23.15s-.3.07-.53.08c-.23.02-.55.02-.95.02-.34,0-.61,0-.81-.02-.2-.02-.36-.05-.48-.09-.12-.04-.2-.1-.25-.17-.05-.07-.09-.15-.12-.25l-1.4-3.48c-.17-.39-.33-.74-.49-1.05-.16-.31-.34-.56-.54-.77s-.42-.36-.68-.46c-.26-.1-.55-.16-.89-.16h-.99v5.94c0,.08-.03.15-.08.22s-.14.12-.26.16c-.12.04-.28.07-.48.1s-.46.04-.77.04-.56-.01-.77-.04c-.2-.02-.37-.06-.49-.1-.12-.04-.21-.09-.25-.16s-.07-.14-.07-.22v-14.16c0-.35.09-.61.27-.76.18-.16.4-.24.67-.24h4.04c.41,0,.75,0,1.01.02.27.02.51.04.72.06.63.09,1.19.24,1.69.46.5.22.93.5,1.28.85s.62.76.8,1.24c.18.48.28,1.03.28,1.65,0,.52-.07,1-.2,1.43-.13.43-.33.81-.58,1.15-.26.34-.57.63-.95.88-.38.25-.81.45-1.29.6.23.11.45.25.66.41.2.16.4.36.58.58.18.23.35.49.51.78.16.29.32.62.47.99l1.31,3.07c.12.31.2.53.24.67s.06.25.06.33ZM125.47,83.2c0-.51-.12-.95-.35-1.3-.23-.35-.61-.6-1.15-.75-.16-.04-.34-.07-.55-.1-.21-.02-.49-.04-.85-.04h-1.42v4.42h1.62c.45,0,.84-.05,1.18-.16.34-.11.62-.26.84-.46.23-.2.39-.43.51-.71.11-.27.17-.58.17-.92Z"/>
    <path class="c" d="M141.27,88.09c0,.37-.08.64-.25.82-.17.18-.39.26-.68.26h-6.54c0,.46.05.87.16,1.25.11.37.28.69.52.95.24.26.54.46.92.6s.82.21,1.34.21,1-.04,1.4-.11.75-.16,1.04-.25c.29-.09.54-.18.73-.25.19-.08.35-.12.47-.12.07,0,.13.01.18.04.05.03.09.08.12.15s.05.17.07.31c.01.13.02.3.02.5,0,.18,0,.33-.01.45,0,.12-.02.23-.04.32-.02.09-.04.16-.07.22-.03.06-.07.12-.13.17-.05.06-.19.13-.43.23-.23.1-.53.19-.89.28-.36.09-.78.17-1.24.24s-.96.1-1.49.1c-.96,0-1.79-.12-2.51-.36-.72-.24-1.32-.61-1.8-1.1-.48-.49-.84-1.11-1.08-1.86-.24-.75-.36-1.62-.36-2.63s.12-1.82.37-2.58c.25-.77.61-1.42,1.08-1.95.47-.54,1.05-.94,1.73-1.22.68-.28,1.44-.42,2.3-.42.9,0,1.67.13,2.31.4.64.27,1.16.63,1.57,1.1.41.47.71,1.03.9,1.67s.29,1.34.29,2.1v.48ZM138.33,87.22c.02-.85-.15-1.52-.51-2.01-.37-.49-.93-.73-1.69-.73-.39,0-.72.07-1.01.22-.29.14-.52.34-.71.58-.19.25-.33.54-.43.87-.1.33-.16.69-.17,1.07h4.53Z"/>
    <path class="c" d="M151.33,90.74c0,.61-.11,1.15-.34,1.61-.23.47-.55.86-.97,1.17-.42.31-.91.55-1.48.71-.57.16-1.19.24-1.86.24-.4,0-.79-.03-1.15-.09-.37-.06-.69-.14-.98-.23-.29-.09-.53-.19-.72-.28s-.33-.19-.42-.27c-.09-.08-.16-.22-.2-.4s-.07-.45-.07-.8c0-.23,0-.42.02-.56.02-.14.04-.25.07-.34.03-.08.07-.14.12-.17s.11-.04.18-.04c.09,0,.22.05.39.15s.39.21.65.33c.26.12.56.23.9.34.34.1.73.16,1.16.16.27,0,.52-.03.73-.08.21-.06.4-.14.55-.24s.27-.24.36-.4.12-.35.12-.55c0-.24-.07-.45-.22-.62-.15-.17-.35-.32-.59-.45-.25-.13-.52-.25-.83-.36-.31-.11-.63-.24-.95-.37s-.64-.29-.95-.47-.59-.39-.83-.65c-.25-.26-.44-.57-.59-.93-.15-.36-.22-.79-.22-1.3s.1-.99.3-1.42c.2-.43.49-.8.87-1.1.38-.3.84-.54,1.38-.71.54-.17,1.15-.25,1.83-.25.34,0,.66.02.98.07s.6.11.86.18c.26.07.47.15.65.24.18.08.3.16.38.22s.13.12.16.18.06.13.07.22c.02.08.03.19.04.31.01.12.02.28.02.46,0,.22,0,.39-.02.53s-.03.25-.06.33c-.03.08-.07.13-.11.16s-.1.04-.17.04c-.07,0-.18-.04-.34-.13-.15-.08-.34-.17-.57-.27s-.49-.19-.8-.27c-.3-.08-.65-.13-1.03-.13-.27,0-.51.03-.71.08-.2.06-.37.14-.49.24-.13.1-.23.23-.29.37s-.1.29-.1.45c0,.25.08.46.23.63.15.17.35.32.6.45.25.13.53.25.85.36.32.11.64.23.96.37.33.13.65.29.96.46s.6.39.85.65c.25.26.45.56.6.92.15.36.23.78.23,1.27Z"/>
    <path class="c" d="M163.54,88.09c0,.37-.08.64-.25.82-.17.18-.39.26-.68.26h-6.54c0,.46.05.87.16,1.25.11.37.28.69.52.95.24.26.54.46.92.6s.82.21,1.34.21,1-.04,1.4-.11.75-.16,1.04-.25c.29-.09.54-.18.73-.25.19-.08.35-.12.47-.12.07,0,.13.01.18.04.05.03.09.08.12.15s.05.17.07.31c.01.13.02.3.02.5,0,.18,0,.33-.01.45,0,.12-.02.23-.04.32-.02.09-.04.16-.07.22-.03.06-.07.12-.13.17-.05.06-.19.13-.43.23-.23.1-.53.19-.89.28-.36.09-.78.17-1.24.24s-.96.1-1.49.1c-.96,0-1.79-.12-2.51-.36-.72-.24-1.32-.61-1.8-1.1-.48-.49-.84-1.11-1.08-1.86-.24-.75-.36-1.62-.36-2.63s.12-1.82.37-2.58c.25-.77.61-1.42,1.08-1.95.47-.54,1.05-.94,1.73-1.22.68-.28,1.44-.42,2.3-.42.9,0,1.67.13,2.31.4.64.27,1.16.63,1.57,1.1.41.47.71,1.03.9,1.67s.29,1.34.29,2.1v.48ZM160.6,87.22c.02-.85-.15-1.52-.51-2.01-.37-.49-.93-.73-1.69-.73-.39,0-.72.07-1.01.22-.29.14-.52.34-.71.58-.19.25-.33.54-.43.87-.1.33-.16.69-.17,1.07h4.53Z"/>
    <path class="c" d="M175.19,93.82c0,.11-.04.2-.12.27-.08.06-.21.11-.38.14-.17.03-.43.04-.77.04-.36,0-.62-.01-.79-.04-.17-.03-.28-.07-.35-.14s-.1-.15-.1-.27v-.86c-.44.47-.95.84-1.51,1.11-.57.26-1.2.4-1.89.4-.57,0-1.09-.07-1.57-.22-.48-.15-.89-.37-1.24-.66s-.62-.66-.81-1.09-.29-.94-.29-1.52c0-.63.12-1.17.37-1.63s.61-.84,1.1-1.15c.49-.3,1.09-.52,1.81-.67.72-.15,1.56-.22,2.52-.22h1.05v-.65c0-.34-.03-.63-.1-.89-.07-.25-.18-.46-.34-.63s-.37-.29-.63-.37c-.26-.08-.58-.12-.97-.12-.51,0-.96.06-1.36.17-.4.11-.75.24-1.05.37-.31.14-.56.26-.77.37-.21.11-.37.17-.5.17-.09,0-.17-.03-.23-.08-.07-.06-.12-.14-.17-.24-.04-.1-.08-.23-.1-.39-.02-.15-.04-.32-.04-.51,0-.25.02-.45.06-.59s.12-.28.23-.39c.11-.12.31-.25.59-.39.28-.14.61-.27.99-.39.38-.12.79-.22,1.24-.3.45-.08.91-.11,1.38-.11.84,0,1.56.08,2.16.25.6.17,1.09.42,1.48.76.39.34.67.78.84,1.32s.27,1.18.27,1.92v7.23ZM172.22,89.21h-1.16c-.49,0-.91.04-1.25.11-.35.07-.63.18-.84.33-.22.14-.38.32-.48.52-.1.21-.15.44-.15.71,0,.45.14.8.43,1.06.29.26.68.39,1.19.39.43,0,.82-.11,1.18-.33s.72-.53,1.09-.95v-1.83Z"/>
    <path class="c" d="M185.12,84.03c0,.29,0,.53-.02.71s-.04.33-.07.43-.07.18-.13.22-.12.06-.2.06c-.06,0-.14-.01-.22-.04s-.17-.06-.27-.09c-.1-.03-.21-.06-.33-.09s-.25-.04-.4-.04c-.17,0-.34.04-.51.1-.17.07-.34.17-.52.32-.18.14-.37.34-.57.58-.2.24-.41.54-.63.89v6.7c0,.08-.02.15-.07.21-.05.06-.13.11-.25.15-.12.04-.27.07-.46.09-.19.02-.44.03-.73.03s-.54,0-.74-.03c-.19-.02-.35-.05-.46-.09-.12-.04-.2-.09-.25-.15-.05-.06-.07-.13-.07-.21v-10.75c0-.08.02-.15.06-.21.04-.06.11-.11.22-.15.1-.04.24-.07.4-.09.16-.02.37-.03.62-.03s.47,0,.64.03c.17.02.3.05.39.09.09.04.16.09.2.15.04.06.06.13.06.21v1.34c.28-.4.55-.73.8-.99.25-.26.49-.47.71-.62.22-.15.45-.26.67-.32.22-.06.45-.09.68-.09.1,0,.22,0,.34.02.12.01.24.03.37.06s.24.06.34.1c.1.04.17.07.21.11.04.04.08.08.1.13s.04.11.05.2c.02.08.03.21.04.38,0,.17.01.4.01.69Z"/>
    <path class="c" d="M194.78,92.07c0,.21,0,.38-.02.52-.01.14-.03.26-.05.36s-.04.17-.07.24c-.03.06-.09.14-.19.23-.1.09-.26.21-.49.34-.23.13-.5.25-.8.36-.3.1-.62.19-.97.25s-.71.1-1.08.1c-.83,0-1.56-.13-2.2-.38-.64-.26-1.17-.64-1.61-1.14-.43-.5-.76-1.11-.98-1.84-.22-.72-.33-1.55-.33-2.48,0-1.08.13-2.01.4-2.79s.64-1.43,1.13-1.95c.48-.51,1.05-.9,1.71-1.14.66-.25,1.38-.37,2.17-.37.32,0,.64.03.95.08.31.06.6.13.87.23.27.1.51.21.72.33.21.12.36.23.45.31.09.09.15.16.19.22.04.06.06.14.08.23.02.1.04.21.05.36s.02.31.02.51c0,.47-.04.79-.12.98-.08.19-.18.28-.31.28-.14,0-.28-.06-.43-.17s-.33-.24-.54-.37-.46-.26-.75-.37c-.29-.11-.63-.17-1.04-.17-.79,0-1.39.3-1.81.91-.42.61-.63,1.5-.63,2.67,0,.58.05,1.09.16,1.53.1.44.26.81.46,1.11.21.3.46.52.77.67.31.15.67.22,1.08.22s.78-.06,1.08-.19c.3-.12.56-.26.79-.42s.41-.29.57-.42c.15-.12.28-.19.39-.19.07,0,.13.02.18.06.05.04.09.11.11.22.03.11.05.25.07.42.02.17.02.39.02.65Z"/>
    <path class="c" d="M207.24,93.78c0,.08-.02.15-.07.21-.05.06-.13.11-.24.15-.11.04-.27.07-.46.09-.2.02-.44.03-.73.03s-.54,0-.74-.03c-.2-.02-.35-.05-.46-.09-.11-.04-.19-.09-.24-.15-.05-.06-.07-.13-.07-.21v-6.13c0-.52-.04-.93-.11-1.23-.08-.3-.19-.55-.33-.76s-.33-.38-.56-.49c-.23-.12-.5-.17-.8-.17-.39,0-.78.14-1.17.42-.39.28-.8.69-1.23,1.23v7.15c0,.08-.02.15-.07.21-.05.06-.13.11-.25.15-.12.04-.27.07-.46.09-.19.02-.44.03-.74.03s-.54,0-.74-.03c-.19-.02-.35-.05-.46-.09s-.2-.09-.25-.15c-.05-.06-.07-.13-.07-.21v-15.85c0-.08.02-.15.07-.22s.13-.12.25-.16c.12-.04.27-.08.46-.1.19-.02.44-.04.74-.04s.54.01.74.04c.19.02.35.06.46.1.12.04.2.1.25.16.05.06.07.14.07.22v5.94c.52-.51,1.05-.9,1.6-1.15s1.11-.38,1.69-.38c.73,0,1.35.12,1.85.36s.91.57,1.22.99c.31.42.53.91.67,1.46.14.56.2,1.24.2,2.03v6.59Z"/>
    <path class="c" d="M228.93,86.16c0,1.43-.19,2.65-.56,3.67-.37,1.02-.91,1.85-1.61,2.49s-1.55,1.12-2.55,1.42c-1,.3-2.19.45-3.57.45h-3.72c-.27,0-.49-.08-.67-.24-.18-.16-.27-.41-.27-.76v-13.59c0-.35.09-.61.27-.76.18-.16.4-.24.67-.24h4c1.39,0,2.57.16,3.54.49.97.33,1.78.81,2.45,1.45s1.17,1.43,1.51,2.37c.34.94.52,2.03.52,3.27ZM225.65,86.27c0-.74-.09-1.43-.26-2.06s-.45-1.19-.83-1.65-.87-.83-1.47-1.09c-.6-.26-1.38-.39-2.36-.39h-1.6v10.61h1.65c.87,0,1.6-.11,2.19-.34.59-.23,1.09-.56,1.49-1.02s.7-1.02.89-1.69c.2-.67.3-1.46.3-2.36Z"/>
    <path class="c" d="M240.51,93.82c0,.11-.04.2-.12.27-.08.06-.21.11-.38.14s-.43.04-.77.04c-.36,0-.62-.01-.79-.04-.17-.03-.28-.07-.35-.14s-.1-.15-.1-.27v-.86c-.44.47-.95.84-1.51,1.11-.57.26-1.2.4-1.89.4-.57,0-1.09-.07-1.57-.22-.48-.15-.89-.37-1.24-.66s-.62-.66-.81-1.09c-.19-.43-.29-.94-.29-1.52,0-.63.12-1.17.37-1.63.24-.46.61-.84,1.1-1.15.49-.3,1.09-.52,1.81-.67.72-.15,1.56-.22,2.52-.22h1.05v-.65c0-.34-.03-.63-.1-.89s-.18-.46-.34-.63c-.16-.17-.37-.29-.63-.37-.26-.08-.58-.12-.97-.12-.51,0-.96.06-1.36.17s-.75.24-1.05.37c-.31.14-.56.26-.77.37-.2.11-.37.17-.5.17-.09,0-.17-.03-.23-.08-.07-.06-.12-.14-.17-.24s-.08-.23-.1-.39c-.02-.15-.04-.32-.04-.51,0-.25.02-.45.06-.59.04-.14.12-.28.23-.39.11-.12.31-.25.59-.39s.61-.27.99-.39c.38-.12.79-.22,1.24-.3.45-.08.91-.11,1.38-.11.84,0,1.56.08,2.16.25s1.09.42,1.48.76c.39.34.67.78.84,1.32s.27,1.18.27,1.92v7.23ZM237.54,89.21h-1.16c-.49,0-.91.04-1.25.11-.35.07-.63.18-.84.33-.22.14-.38.32-.48.52-.1.21-.15.44-.15.71,0,.45.14.8.43,1.06.29.26.68.39,1.19.39.43,0,.82-.11,1.17-.33s.72-.53,1.09-.95v-1.83Z"/>
    <path class="c" d="M249.67,92.72c0,.35-.02.62-.07.81-.04.19-.1.32-.17.4s-.18.14-.32.2c-.14.06-.31.11-.49.16s-.39.08-.61.1c-.22.02-.44.04-.67.04-.6,0-1.12-.08-1.57-.23-.44-.15-.81-.39-1.1-.71-.29-.32-.5-.72-.64-1.2-.14-.48-.2-1.05-.2-1.71v-5.51h-1.29c-.15,0-.27-.09-.35-.28-.08-.19-.12-.5-.12-.95,0-.23,0-.43.03-.59.02-.16.05-.29.09-.38.04-.09.09-.16.15-.2.06-.04.13-.06.21-.06h1.28v-2.4c0-.08.02-.15.07-.22.04-.06.12-.12.24-.16.12-.04.27-.08.47-.1.2-.02.44-.03.73-.03s.54,0,.74.03c.2.02.35.05.46.1.11.04.19.1.24.16s.07.14.07.22v2.4h2.34c.08,0,.15.02.21.06.06.04.11.11.15.2.04.09.07.22.09.38.02.16.03.36.03.59,0,.44-.04.76-.12.95-.08.19-.2.28-.35.28h-2.35v5.05c0,.59.09,1.03.28,1.32.18.29.51.44.99.44.16,0,.3-.01.43-.04s.24-.06.34-.1.18-.07.25-.1c.07-.03.13-.04.19-.04.05,0,.09.01.14.04.04.03.08.08.1.17s.05.2.07.34c.02.14.03.33.03.55Z"/>
    <path class="c" d="M260.78,93.82c0,.11-.04.2-.12.27-.08.06-.21.11-.38.14s-.43.04-.77.04c-.36,0-.62-.01-.79-.04-.17-.03-.28-.07-.35-.14s-.1-.15-.1-.27v-.86c-.44.47-.95.84-1.51,1.11-.57.26-1.2.4-1.89.4-.57,0-1.09-.07-1.57-.22-.48-.15-.89-.37-1.24-.66s-.62-.66-.81-1.09c-.19-.43-.29-.94-.29-1.52,0-.63.12-1.17.37-1.63.24-.46.61-.84,1.1-1.15.49-.3,1.09-.52,1.81-.67.72-.15,1.56-.22,2.52-.22h1.05v-.65c0-.34-.03-.63-.1-.89s-.18-.46-.34-.63c-.16-.17-.37-.29-.63-.37-.26-.08-.58-.12-.97-.12-.51,0-.96.06-1.36.17s-.75.24-1.05.37c-.31.14-.56.26-.77.37-.2.11-.37.17-.5.17-.09,0-.17-.03-.23-.08-.07-.06-.12-.14-.17-.24s-.08-.23-.1-.39c-.02-.15-.04-.32-.04-.51,0-.25.02-.45.06-.59.04-.14.12-.28.23-.39.11-.12.31-.25.59-.39s.61-.27.99-.39c.38-.12.79-.22,1.24-.3.45-.08.91-.11,1.38-.11.84,0,1.56.08,2.16.25s1.09.42,1.48.76c.39.34.67.78.84,1.32s.27,1.18.27,1.92v7.23ZM257.81,89.21h-1.16c-.49,0-.91.04-1.25.11-.35.07-.63.18-.84.33-.22.14-.38.32-.48.52-.1.21-.15.44-.15.71,0,.45.14.8.43,1.06.29.26.68.39,1.19.39.43,0,.82-.11,1.17-.33s.72-.53,1.09-.95v-1.83Z"/>
  </g>
  <g>
    <path class="c" d="M282.52,93.01c.1.29.16.52.18.69.02.17,0,.29-.1.38-.09.08-.25.14-.47.16-.22.02-.53.03-.93.03s-.73,0-.96-.02c-.23-.01-.4-.04-.52-.07-.12-.04-.21-.09-.25-.15s-.09-.15-.12-.25l-1.05-3.13h-5.86l-.99,3.05c-.03.11-.07.21-.13.28-.05.08-.14.14-.25.18-.12.04-.28.07-.49.09-.21.02-.49.02-.84.02-.37,0-.66-.01-.87-.04-.21-.02-.35-.08-.43-.17-.08-.09-.11-.22-.08-.39s.08-.39.18-.67l4.81-13.83c.05-.14.1-.25.17-.33.06-.08.17-.15.31-.19s.34-.07.58-.08c.25-.01.58-.02.99-.02.47,0,.85,0,1.13.02.28.01.5.04.66.08.16.04.27.11.34.2.07.09.13.21.17.36l4.82,13.82ZM275.36,81.57h-.01l-2.21,6.63h4.42l-2.21-6.63Z"/>
    <path class="c" d="M292.09,90.74c0,.61-.11,1.15-.34,1.61-.23.47-.55.86-.97,1.17s-.91.55-1.48.71c-.57.16-1.19.24-1.86.24-.4,0-.79-.03-1.15-.09-.37-.06-.69-.14-.98-.23-.29-.09-.53-.19-.72-.28-.19-.1-.33-.19-.42-.27-.09-.08-.16-.22-.21-.4s-.07-.45-.07-.8c0-.23,0-.42.02-.56.02-.14.04-.25.07-.34.03-.08.07-.14.12-.17s.11-.04.18-.04c.09,0,.22.05.39.15s.39.21.64.33c.26.12.56.23.9.34.34.1.73.16,1.16.16.27,0,.52-.03.73-.08.21-.06.4-.14.55-.24s.28-.24.36-.4c.08-.16.12-.35.12-.55,0-.24-.07-.45-.22-.62s-.35-.32-.59-.45c-.25-.13-.52-.25-.83-.36s-.63-.24-.95-.37-.64-.29-.95-.47-.59-.39-.83-.65c-.25-.26-.44-.57-.59-.93-.15-.36-.22-.79-.22-1.3s.1-.99.3-1.42c.2-.43.49-.8.87-1.1.38-.3.84-.54,1.38-.71.54-.17,1.15-.25,1.83-.25.34,0,.67.02.98.07s.6.11.86.18c.26.07.47.15.65.24.18.08.3.16.38.22.08.06.13.12.16.18s.06.13.07.22c.02.08.03.19.04.31.01.12.02.28.02.46,0,.22,0,.39-.02.53-.01.14-.03.25-.06.33-.03.08-.07.13-.12.16-.05.03-.1.04-.17.04-.07,0-.19-.04-.34-.13-.15-.08-.34-.17-.57-.27-.23-.1-.49-.19-.8-.27-.3-.08-.64-.13-1.03-.13-.27,0-.51.03-.71.08-.2.06-.37.14-.49.24-.13.1-.22.23-.29.37s-.1.29-.1.45c0,.25.08.46.23.63.15.17.35.32.6.45.25.13.53.25.85.36.32.11.64.23.96.37s.65.29.96.46.6.39.85.65c.25.26.45.56.6.92.15.36.23.78.23,1.27Z"/>
    <path class="c" d="M301.94,90.74c0,.61-.11,1.15-.34,1.61-.23.47-.55.86-.97,1.17s-.91.55-1.48.71c-.57.16-1.19.24-1.86.24-.4,0-.79-.03-1.15-.09-.37-.06-.69-.14-.98-.23-.29-.09-.53-.19-.72-.28-.19-.1-.33-.19-.42-.27-.09-.08-.16-.22-.21-.4s-.07-.45-.07-.8c0-.23,0-.42.02-.56.02-.14.04-.25.07-.34.03-.08.07-.14.12-.17s.11-.04.18-.04c.09,0,.22.05.39.15s.39.21.64.33c.26.12.56.23.9.34.34.1.73.16,1.16.16.27,0,.52-.03.73-.08.21-.06.4-.14.55-.24s.28-.24.36-.4c.08-.16.12-.35.12-.55,0-.24-.07-.45-.22-.62s-.35-.32-.59-.45c-.25-.13-.52-.25-.83-.36s-.63-.24-.95-.37-.64-.29-.95-.47-.59-.39-.83-.65c-.25-.26-.44-.57-.59-.93-.15-.36-.22-.79-.22-1.3s.1-.99.3-1.42c.2-.43.49-.8.87-1.1.38-.3.84-.54,1.38-.71.54-.17,1.15-.25,1.83-.25.34,0,.67.02.98.07s.6.11.86.18c.26.07.47.15.65.24.18.08.3.16.38.22.08.06.13.12.16.18s.06.13.07.22c.02.08.03.19.04.31.01.12.02.28.02.46,0,.22,0,.39-.02.53-.01.14-.03.25-.06.33-.03.08-.07.13-.12.16-.05.03-.1.04-.17.04-.07,0-.19-.04-.34-.13-.15-.08-.34-.17-.57-.27-.23-.1-.49-.19-.8-.27-.3-.08-.64-.13-1.03-.13-.27,0-.51.03-.71.08-.2.06-.37.14-.49.24-.13.1-.22.23-.29.37s-.1.29-.1.45c0,.25.08.46.23.63.15.17.35.32.6.45.25.13.53.25.85.36.32.11.64.23.96.37s.65.29.96.46.6.39.85.65c.25.26.45.56.6.92.15.36.23.78.23,1.27Z"/>
    <path class="c" d="M307.48,79.39c0,.61-.12,1.03-.37,1.27-.25.23-.71.35-1.39.35s-1.14-.11-1.38-.34c-.24-.23-.36-.63-.36-1.22s.12-1.03.37-1.27c.25-.24.71-.36,1.39-.36s1.13.11,1.37.34c.24.23.36.64.36,1.22ZM307.25,93.78c0,.08-.02.15-.07.21-.05.06-.13.11-.25.15-.12.04-.27.07-.46.09-.19.02-.44.03-.74.03s-.54,0-.74-.03c-.19-.02-.35-.05-.46-.09s-.2-.09-.25-.15c-.05-.06-.07-.13-.07-.21v-10.73c0-.08.02-.15.07-.21s.13-.11.25-.16.27-.08.46-.1c.19-.02.44-.04.74-.04s.54.01.74.04c.19.02.35.06.46.1.12.04.2.1.25.16.05.06.07.13.07.21v10.73Z"/>
    <path class="c" d="M317.85,90.74c0,.61-.11,1.15-.34,1.61-.23.47-.55.86-.97,1.17s-.91.55-1.48.71c-.57.16-1.19.24-1.86.24-.4,0-.79-.03-1.15-.09-.37-.06-.69-.14-.98-.23-.29-.09-.53-.19-.72-.28-.19-.1-.33-.19-.42-.27-.09-.08-.16-.22-.21-.4s-.07-.45-.07-.8c0-.23,0-.42.02-.56.02-.14.04-.25.07-.34.03-.08.07-.14.12-.17s.11-.04.18-.04c.09,0,.22.05.39.15s.39.21.64.33c.26.12.56.23.9.34.34.1.73.16,1.16.16.27,0,.52-.03.73-.08.21-.06.4-.14.55-.24s.28-.24.36-.4c.08-.16.12-.35.12-.55,0-.24-.07-.45-.22-.62s-.35-.32-.59-.45c-.25-.13-.52-.25-.83-.36s-.63-.24-.95-.37-.64-.29-.95-.47-.59-.39-.83-.65c-.25-.26-.44-.57-.59-.93-.15-.36-.22-.79-.22-1.3s.1-.99.3-1.42c.2-.43.49-.8.87-1.1.38-.3.84-.54,1.38-.71.54-.17,1.15-.25,1.83-.25.34,0,.67.02.98.07s.6.11.86.18c.26.07.47.15.65.24.18.08.3.16.38.22.08.06.13.12.16.18s.06.13.07.22c.02.08.03.19.04.31.01.12.02.28.02.46,0,.22,0,.39-.02.53-.01.14-.03.25-.06.33-.03.08-.07.13-.12.16-.05.03-.1.04-.17.04-.07,0-.19-.04-.34-.13-.15-.08-.34-.17-.57-.27-.23-.1-.49-.19-.8-.27-.3-.08-.64-.13-1.03-.13-.27,0-.51.03-.71.08-.2.06-.37.14-.49.24-.13.1-.22.23-.29.37s-.1.29-.1.45c0,.25.08.46.23.63.15.17.35.32.6.45.25.13.53.25.85.36.32.11.64.23.96.37s.65.29.96.46.6.39.85.65c.25.26.45.56.6.92.15.36.23.78.23,1.27Z"/>
    <path class="c" d="M326.21,92.72c0,.35-.02.62-.07.81-.04.19-.1.32-.17.4s-.18.14-.32.2c-.14.06-.31.11-.49.16s-.39.08-.61.1c-.22.02-.44.04-.67.04-.6,0-1.12-.08-1.57-.23-.44-.15-.81-.39-1.1-.71-.29-.32-.5-.72-.64-1.2-.14-.48-.2-1.05-.2-1.71v-5.51h-1.29c-.15,0-.27-.09-.35-.28-.08-.19-.12-.5-.12-.95,0-.23,0-.43.03-.59.02-.16.05-.29.09-.38.04-.09.09-.16.15-.2.06-.04.13-.06.21-.06h1.28v-2.4c0-.08.02-.15.07-.22.04-.06.12-.12.24-.16.12-.04.27-.08.47-.1.2-.02.44-.03.73-.03s.54,0,.74.03c.2.02.35.05.46.1.11.04.19.1.24.16s.07.14.07.22v2.4h2.34c.08,0,.15.02.21.06.06.04.11.11.15.2.04.09.07.22.09.38.02.16.03.36.03.59,0,.44-.04.76-.12.95-.08.19-.2.28-.35.28h-2.35v5.05c0,.59.09,1.03.28,1.32.18.29.51.44.99.44.16,0,.3-.01.43-.04s.24-.06.34-.1.18-.07.25-.1c.07-.03.13-.04.19-.04.05,0,.09.01.14.04.04.03.08.08.1.17s.05.2.07.34c.02.14.03.33.03.55Z"/>
    <path class="c" d="M337.32,93.82c0,.11-.04.2-.12.27-.08.06-.21.11-.38.14s-.43.04-.77.04c-.36,0-.62-.01-.79-.04-.17-.03-.28-.07-.35-.14s-.1-.15-.1-.27v-.86c-.44.47-.95.84-1.51,1.11-.57.26-1.2.4-1.89.4-.57,0-1.09-.07-1.57-.22-.48-.15-.89-.37-1.24-.66s-.62-.66-.81-1.09c-.19-.43-.29-.94-.29-1.52,0-.63.12-1.17.37-1.63.24-.46.61-.84,1.1-1.15.49-.3,1.09-.52,1.81-.67.72-.15,1.56-.22,2.52-.22h1.05v-.65c0-.34-.03-.63-.1-.89s-.18-.46-.34-.63c-.16-.17-.37-.29-.63-.37-.26-.08-.58-.12-.97-.12-.51,0-.96.06-1.36.17s-.75.24-1.05.37c-.31.14-.56.26-.77.37-.2.11-.37.17-.5.17-.09,0-.17-.03-.23-.08-.07-.06-.12-.14-.17-.24s-.08-.23-.1-.39c-.02-.15-.04-.32-.04-.51,0-.25.02-.45.06-.59.04-.14.12-.28.23-.39.11-.12.31-.25.59-.39s.61-.27.99-.39c.38-.12.79-.22,1.24-.3.45-.08.91-.11,1.38-.11.84,0,1.56.08,2.16.25s1.09.42,1.48.76c.39.34.67.78.84,1.32s.27,1.18.27,1.92v7.23ZM334.35,89.21h-1.16c-.49,0-.91.04-1.25.11-.35.07-.63.18-.84.33-.22.14-.38.32-.48.52-.1.21-.15.44-.15.71,0,.45.14.8.43,1.06.29.26.68.39,1.19.39.43,0,.82-.11,1.17-.33s.72-.53,1.09-.95v-1.83Z"/>
    <path class="c" d="M350.61,93.78c0,.08-.02.15-.07.21-.05.06-.13.11-.24.15-.11.04-.27.07-.46.09-.2.02-.44.03-.73.03s-.54,0-.74-.03c-.2-.02-.35-.05-.46-.09-.11-.04-.19-.09-.24-.15-.05-.06-.07-.13-.07-.21v-6.13c0-.52-.04-.93-.11-1.23-.08-.3-.19-.55-.33-.76s-.33-.38-.56-.49c-.23-.12-.5-.17-.8-.17-.39,0-.78.14-1.17.42-.39.28-.8.69-1.23,1.23v7.15c0,.08-.02.15-.07.21-.05.06-.13.11-.25.15-.12.04-.27.07-.46.09-.19.02-.44.03-.74.03s-.54,0-.74-.03c-.19-.02-.35-.05-.46-.09s-.2-.09-.25-.15c-.05-.06-.07-.13-.07-.21v-10.75c0-.08.02-.15.06-.21.04-.06.11-.11.22-.15s.24-.07.4-.09c.17-.02.37-.03.62-.03s.47,0,.64.03c.17.02.3.05.39.09.09.04.16.09.2.15.04.06.06.13.06.21v1.24c.59-.64,1.2-1.12,1.81-1.45.61-.32,1.25-.48,1.92-.48.73,0,1.35.12,1.85.36s.91.57,1.22.98c.31.41.53.9.67,1.45.14.55.2,1.22.2,2v6.64Z"/>
    <path class="c" d="M359.73,92.72c0,.35-.02.62-.07.81-.04.19-.1.32-.17.4s-.18.14-.32.2c-.14.06-.31.11-.49.16s-.39.08-.61.1c-.22.02-.44.04-.67.04-.6,0-1.12-.08-1.57-.23-.44-.15-.81-.39-1.1-.71-.29-.32-.5-.72-.64-1.2-.14-.48-.2-1.05-.2-1.71v-5.51h-1.29c-.15,0-.27-.09-.35-.28-.08-.19-.12-.5-.12-.95,0-.23,0-.43.03-.59.02-.16.05-.29.09-.38.04-.09.09-.16.15-.2.06-.04.13-.06.21-.06h1.28v-2.4c0-.08.02-.15.07-.22.04-.06.12-.12.24-.16.12-.04.27-.08.47-.1.2-.02.44-.03.73-.03s.54,0,.74.03c.2.02.35.05.46.1.11.04.19.1.24.16s.07.14.07.22v2.4h2.34c.08,0,.15.02.21.06.06.04.11.11.15.2.04.09.07.22.09.38.02.16.03.36.03.59,0,.44-.04.76-.12.95-.08.19-.2.28-.35.28h-2.35v5.05c0,.59.09,1.03.28,1.32.18.29.51.44.99.44.16,0,.3-.01.43-.04s.24-.06.34-.1.18-.07.25-.1c.07-.03.13-.04.19-.04.05,0,.09.01.14.04.04.03.08.08.1.17s.05.2.07.34c.02.14.03.33.03.55Z"/>
  </g>
</svg>