<?xml version="1.0" encoding="UTF-8"?>
<svg id="Illustration" xmlns="http://www.w3.org/2000/svg" viewBox="0 0 700 700">
  <defs>
    <style>
      .cls-1 {
        fill: #0088c4;
      }

      .cls-2 {
        stroke: #0088c4;
      }

      .cls-2, .cls-3, .cls-4, .cls-5, .cls-6, .cls-7, .cls-8, .cls-9 {
        fill: none;
      }

      .cls-2, .cls-4, .cls-6, .cls-9 {
        stroke-linecap: round;
      }

      .cls-2, .cls-5, .cls-6, .cls-9 {
        stroke-miterlimit: 10;
      }

      .cls-2, .cls-8 {
        stroke-width: 6px;
      }

      .cls-10 {
        fill: #00b2e2;
      }

      .cls-11 {
        fill: #00679e;
      }

      .cls-12 {
        fill: #00989b;
      }

      .cls-3, .cls-4, .cls-7 {
        stroke-width: 4px;
      }

      .cls-3, .cls-4, .cls-7, .cls-8 {
        stroke-linejoin: round;
      }

      .cls-3, .cls-8 {
        stroke: #00b7b5;
      }

      .cls-4, .cls-7 {
        stroke: #00989b;
      }

      .cls-13 {
        fill: #e2e2e2;
      }

      .cls-14 {
        fill: #00b7b5;
      }

      .cls-5 {
        stroke: #52a360;
      }

      .cls-6 {
        stroke: #00679e;
        stroke-width: 13.396px;
      }

      .cls-15 {
        fill: #009b85;
      }

      .cls-16 {
        fill: #00dfe2;
      }

      .cls-17 {
        fill: #51fffd;
      }

      .cls-9 {
        stroke: #5bd7f4;
        stroke-width: 3px;
      }

      .cls-18 {
        fill: #49c174;
      }
    </style>
  </defs>
  <path class="cls-11" d="M363.262,354.103s7.035,27.374,3.89,52.674c-3.145,25.301-5.777,43.973,1.926,90.952,6.478,39.508,23.572,59.695,32.014,88.024,8.443,28.329-19.117,47.546-40.469,13.228-19.532-31.394-30.322-59.079-35.261-119.914-5.089-62.693,18.552-88.227,5.161-129.255"/>
  <path class="cls-1" d="M341.816,398.542s24.366,121.253-42.3,161.92-89.889,40.333-95.336,15.444c-5.346-24.424,54.67-26.778,77.67-51.778s12.189-54.253,20.189-118.587"/>
  <path class="cls-1" d="M338.261,422.907s-38.57,101.524-116.987,89.299c-77.159-12.029-90.881-29.02-76.542-50.08,14.071-20.667,51.425,11.272,85.393,10.804,33.967-.469,34.542-29.12,76.054-78.915"/>
  <path class="cls-16" d="M485.875,191.844c-1.523,1.36-3.182,3.281-4.812,5.548-2.041,2.839-6.192,3.052-8.521.445l-17.751-19.876c-2.015-2.256-5.478-2.452-7.734-.437l-74.286,66.344c-2.256,2.015-2.452,5.478-.437,7.734l66.344,74.286c2.015,2.256,5.478,2.452,7.734.437l19.876-17.751c2.608-2.329,2.394-6.48-.445-8.521-2.266-1.63-4.188-3.289-5.548-4.812-6.894-7.719-6.225-19.565,1.494-26.459s19.565-6.225,26.459,1.494c1.36,1.523,2.793,3.619,4.157,6.054,1.709,3.05,5.809,3.73,8.417,1.401l19.876-17.751c2.256-2.015,2.452-5.478.437-7.734l-17.751-19.876c-2.329-2.608-1.649-6.709,1.401-8.417,2.435-1.364,4.531-2.796,6.054-4.157,7.719-6.894,8.388-18.74,1.494-26.459-6.894-7.719-18.74-8.388-26.459-1.494Z"/>
  <g>
    <circle class="cls-7" cx="449.053" cy="231.673" r="22.681"/>
    <path class="cls-15" d="M447.293,254.123l-9.694,34.459c-.452,1.608-2.709,2.379-5.041,1.723h0c-2.332-.656-3.855-2.491-3.403-4.099l9.694-34.459"/>
  </g>
  <path class="cls-1" d="M324.633,408.312s27.237,110.645,127.926,140.323c32.302,9.521,56.193,6.076,71.867,3.582,37.613-5.985,32.446-42.318-1.561-39.403-20.161,1.728-46.494,6.401-62.612-3.841-28.672-18.219-68.552-44.904-92.881-104.995"/>
  <path class="cls-10" d="M320.705,390.007s-16.808,24.019-40.363,43.575c-15.826,13.139-58.837,16.813-72.654,40.825,13.862,2.83,27.368,8.315,37.444,18.399,2.388-17.939,39.535-15.193,72.907-39.573,26.389-19.278,29.333-35.282,29.333-35.282l-26.667-27.944Z"/>
  <path class="cls-10" d="M482.943,424.467c-13.029-1.2-49.187,9.408-62.904,5.766-54.914-14.581-42.835-50.5-42.835-52.5l-36.332,33.278s-1.5,23.889,35.5,46.556c33.271,20.383,73.453,5.103,77.05,3.697.207-.086.407-.176.616-.261,0,0-.213.103-.616.261-.913.38-1.805.774-2.676,1.182,16.397-4.618,29.043-21.268,32.196-37.979Z"/>
  <path class="cls-13" d="M453.422,461.263c.403-.158.616-.261.616-.261-.209.085-.409.175-.616.261Z"/>
  <path class="cls-10" d="M514.522,345.504c-10.657-43.461-44.733-32.773-39.797-2.418,4.014,24.681,19.998,43.817-13.83,62.739-23.554,13.175-45.526-1.082-59.039-13.653-2.472-2.3-2.555-6.185-.178-8.583,19.977-20.158,32.582-49.681,32.582-82.579,0-60.751-42.981-110-96-110s-96,49.249-96,110c0,36.425,15.452,68.714,39.255,88.732,3.663,3.08,2.417,8.997-2.158,10.4-19.204,5.889-43.13,8.922-61.511-3.251-32.316-21.402-31.609-39.125-25.759-63.436,7.195-29.901-30.394-41.747-44.275.794-13.881,42.541,19.597,89.18,66.934,106.16,30.865,11.072,71.464,2.715,95.98-4.442,13.083-3.819,21.585-12.514,21.585-12.514l-7.162-13.47c4.288.671,8.664,1.026,13.112,1.026,12.561,0,24.558-2.768,35.554-7.795l-8.581,15.293s48.663,41.842,97.138,28.454c48.475-13.388,62.807-57.997,52.15-101.458Z"/>
  <path class="cls-18" d="M377.578,78.07h0"/>
  <path class="cls-17" d="M589.458,324.779l-14.3,22.487c-1.876,2.95-6.007,3.411-8.481.941-1.975-1.973-3.923-3.6-5.647-4.696-8.733-5.553-20.314-2.976-25.868,5.757-5.553,8.733-2.976,20.314,5.757,25.868,1.723,1.096,4.023,2.17,6.647,3.122,3.287,1.192,4.621,5.129,2.745,8.079l-14.3,22.487c-1.623,2.553-.87,5.938,1.683,7.561l22.487,14.3c2.95,1.876,6.887.542,8.079-2.745.952-2.624,2.026-4.924,3.122-6.647,5.553-8.733,17.135-11.311,25.868-5.757,8.733,5.553,11.311,17.135,5.758,25.868-1.096,1.723-2.723,3.671-4.696,5.647-2.471,2.474-2.01,6.605.941,8.481l22.487,14.299c2.553,1.623,5.938.87,7.561-1.683l14.3-22.487c1.876-2.95,6.007-3.411,8.481-.941,1.975,1.973,3.923,3.6,5.646,4.696,8.733,5.553,20.314,2.976,25.868-5.757,5.553-8.733,2.976-20.314-5.758-25.868-1.723-1.096-4.023-2.17-6.647-3.122-3.287-1.192-4.621-5.129-2.745-8.079l14.3-22.487c1.623-2.553.87-5.938-1.683-7.561l-84.046-53.444c-2.553-1.623-5.938-.87-7.561,1.683Z"/>
  <path class="cls-17" d="M187.812,250.176c-1.797.971-3.855,2.456-5.965,4.283-2.643,2.289-6.731,1.536-8.393-1.54l-12.669-23.445c-1.438-2.661-4.761-3.653-7.423-2.215l-87.624,47.35c-2.661,1.438-3.653,4.761-2.215,7.423l12.669,23.445c1.662,3.076.052,6.908-3.311,7.864-2.685.763-5.055,1.672-6.852,2.643-9.105,4.92-12.497,16.289-7.577,25.394,4.92,9.105,16.289,12.497,25.394,7.577,1.797-.971,3.855-2.456,5.965-4.283,2.643-2.289,6.731-1.536,8.393,1.54l12.669,23.445c1.438,2.661,4.761,3.653,7.423,2.215l23.445-12.669c3.076-1.662,3.829-5.75,1.54-8.393-1.828-2.11-3.313-4.169-4.283-5.965-4.92-9.105-1.527-20.474,7.577-25.394,9.105-4.92,20.474-1.528,25.394,7.577.971,1.797,1.879,4.167,2.643,6.852.956,3.363,4.788,4.973,7.864,3.311l23.445-12.669c2.661-1.438,3.653-4.761,2.215-7.423l-12.669-23.445c-1.662-3.076-.052-6.908,3.311-7.864,2.685-.763,5.055-1.672,6.852-2.643,9.105-4.92,12.497-16.289,7.577-25.394s-16.289-12.497-25.394-7.577Z"/>
  <path class="cls-16" d="M393.845,119.81c-1.986-.473-4.511-.738-7.302-.781-3.496-.054-6.043-3.339-5.232-6.741l6.175-25.923c.701-2.943-1.116-5.897-4.059-6.597l-96.888-23.08c-2.943-.701-5.897,1.116-6.597,4.059l-6.175,25.923c-.81,3.401-4.565,5.186-7.709,3.658-2.511-1.22-4.884-2.122-6.87-2.595-10.068-2.398-20.173,3.819-22.571,13.887-2.398,10.067,3.819,20.173,13.886,22.571,1.986.473,4.511.738,7.302.781,3.496.054,6.043,3.339,5.232,6.741l-6.175,25.923c-.701,2.943,1.116,5.897,4.059,6.597l25.923,6.175c3.401.81,6.687-1.736,6.741-5.232.043-2.791.308-5.316.781-7.302,2.398-10.068,12.504-16.285,22.571-13.886,10.068,2.398,16.285,12.504,13.886,22.571-.473,1.986-1.375,4.359-2.595,6.87-1.528,3.145.257,6.899,3.658,7.709l25.923,6.175c2.943.701,5.897-1.116,6.597-4.059l6.175-25.923c.81-3.401,4.565-5.186,7.709-3.658,2.511,1.22,4.884,2.122,6.87,2.595,10.068,2.398,20.173-3.819,22.571-13.886,2.398-10.068-3.819-20.173-13.886-22.571Z"/>
  <path class="cls-6" d="M307.183,325.458s1.555,14.07,5.725,25.369"/>
  <path class="cls-6" d="M371.68,329.679s-1.555,14.07-5.725,25.369"/>
  <circle class="cls-17" cx="559.817" cy="170.344" r="14.537"/>
  <circle class="cls-17" cx="587.706" cy="213.455" r="7.722"/>
  <circle class="cls-17" cx="550.562" cy="269.899" r="5.222"/>
  <circle class="cls-17" cx="557.18" cy="608.708" r="5.222"/>
  <circle class="cls-17" cx="95.791" cy="507.985" r="7.722"/>
  <circle class="cls-17" cx="581.856" cy="570.95" r="7.722"/>
  <circle class="cls-17" cx="119.642" cy="526.221" r="5.222"/>
  <circle class="cls-17" cx="110.328" cy="433.649" r="14.537"/>
  <path class="cls-9" d="M393.811,414.789s13.591,10.28,30.561,13.444c25.445,4.744,26.556-3.234,56-2.667"/>
  <path class="cls-16" d="M436.462,456.608c-3.365.948-6.752-1.463-6.948-4.954-.157-2.787-.523-5.299-1.077-7.264-2.805-9.962-13.155-15.763-23.117-12.958-9.962,2.805-15.763,13.155-12.958,23.117.554,1.966,1.551,4.3,2.872,6.759,1.654,3.08.024,6.904-3.341,7.852l-25.651,7.224c-2.912.82-4.608,3.845-3.788,6.757l7.224,25.651c.948,3.365-1.463,6.752-4.954,6.948-2.787.157-5.299.523-7.265,1.077-9.962,2.805-15.763,13.155-12.958,23.117,2.805,9.962,13.155,15.763,23.117,12.958,1.966-.554,4.3-1.551,6.759-2.872,3.08-1.654,6.904-.024,7.852,3.341l7.224,25.651c.82,2.912,3.845,4.608,6.757,3.788l95.87-26.998c2.912-.82,4.608-3.845,3.788-6.757l-26.998-95.87c-.82-2.912-3.845-4.608-6.757-3.788l-25.651,7.224Z"/>
  <g>
    <rect class="cls-8" x="597.456" y="363.394" width="37.315" height="47.482" rx="1.858" ry="1.858" transform="translate(306.651 -271.425) rotate(32.688)"/>
    <path class="cls-14" d="M622.588,398.798l-12.481-1.588c-1.27-.162-1.629-1.831-.538-2.501l10.723-6.583c.131-.08.274-.138.424-.17l37.921-8.163c.126-.027.257.082.292.244l2.203,10.235c.035.162-.039.316-.166.343l-37.921,8.163c-.15.032-.304.039-.456.02Z"/>
  </g>
  <g>
    <path class="cls-5" d="M441.731,539.063h0"/>
    <rect class="cls-12" x="402.184" y="496.702" width="14.83" height="51.421" transform="translate(-119.414 121.374) rotate(-14.736)"/>
    <rect class="cls-12" x="423.598" y="507.639" width="14.83" height="35.129" transform="translate(-119.419 126.913) rotate(-14.736)"/>
    <rect class="cls-12" x="444.812" y="517.035" width="14.83" height="20.404" transform="translate(-119.239 132.376) rotate(-14.736)"/>
    <polyline class="cls-4" points="466.178 538.854 402.851 556.117 386.371 495.662"/>
  </g>
  <path class="cls-10" d="M482.943,424.467c-3.153,16.711-15.8,33.361-32.196,37.979-19.372,9.082-27.837,24.939-12.041,39.788,16.667,15.667,71.222-11.009,73.111-41.231,1.799-28.792-11.296-34.917-28.873-36.535Z"/>
  <path class="cls-9" d="M235.705,453.621s43.967-17.832,64.778-39.943"/>
  <path class="cls-2" d="M289.816,318.567s7.111-22.291,26.444-12.034"/>
  <path class="cls-2" d="M388.871,322.682s-7.111-22.291-26.444-12.034"/>
  <path class="cls-10" d="M330.98,442.397s10.947-10.775,13.003-10.775,14.973,12.856,14.861,12.751-15.361-34.418-15.361-34.418l-12.503,32.442Z"/>
  <ellipse class="cls-12" cx="328.384" cy="94.375" rx="9.184" ry="24.826" transform="translate(171.269 397.785) rotate(-78.658)"/>
  <path class="cls-12" d="M305.357,103.281c4.976,3.569,12.351,6.253,19.691,7.725,4.298.862,8.65,1.318,12.583,1.318,3.242,0,6.112-.292,8.565-.857l-.771,3.847c-.528.729-3.776,2.235-10.44,2.235-3.416,0-7.225-.402-11.016-1.162-12.882-2.584-19.023-7.62-19.382-9.264l.771-3.842M303.165,93.866l-2.518,12.555c-.998,4.973,9.091,11.191,22.535,13.887,4.194.841,8.219,1.24,11.802,1.24,7.903,0,13.658-1.941,14.345-5.363l2.518-12.555-.074-.015c-1.253,3.013-6.76,4.708-14.143,4.708-3.581,0-7.604-.399-11.796-1.24-12.834-2.574-22.604-8.357-22.595-13.204l-.074-.015h0Z"/>
  <path class="cls-12" d="M301.951,120.262c4.976,3.569,12.351,6.253,19.691,7.725,4.298.862,8.649,1.318,12.583,1.318,3.242,0,6.112-.292,8.565-.857l-.772,3.847c-.528.729-3.776,2.235-10.44,2.235-3.416,0-7.225-.402-11.016-1.162-12.882-2.584-19.023-7.619-19.382-9.264l.771-3.842M299.759,110.847l-2.518,12.555c-.998,4.973,9.092,11.191,22.535,13.887,4.194.841,8.219,1.24,11.803,1.24,7.903,0,13.658-1.941,14.344-5.363l2.518-12.555-.074-.015c-1.253,3.013-6.761,4.708-14.143,4.708-3.581,0-7.604-.399-11.796-1.24-12.834-2.574-22.604-8.357-22.595-13.203l-.074-.015h0Z"/>
  <path class="cls-14" d="M108.355,324.367l62.481-33.51s-4.566-18.952-19.301-22.906c-9.547-2.562-16.917,7.163-16.917,7.163,0,0-10.642-17.548-23.781-6.329-10.811,9.231-1.796,25.918-1.796,25.918,0,0-5.687,3.872-6.775,11.175s6.089,18.491,6.089,18.491Z"/>
  <path class="cls-17" d="M292.241,428.976c-.318,2.017-.386,4.555-.212,7.341.217,3.49-2.861,6.283-6.315,5.739l-26.324-4.146c-2.988-.471-5.792,1.57-6.263,4.558l-15.496,98.386c-.471,2.988,1.57,5.792,4.558,6.263l98.386,15.496c2.988.471,5.792-1.57,6.263-4.558l4.146-26.324c.544-3.454-2.25-6.532-5.739-6.315-2.786.173-5.324.106-7.341-.212-10.223-1.61-17.205-11.203-15.595-21.426,1.61-10.223,11.203-17.205,21.426-15.595,2.017.318,4.453,1.033,7.051,2.055,3.254,1.279,6.859-.791,7.402-4.245l4.146-26.324c.471-2.988-1.57-5.792-4.558-6.263l-26.324-4.146c-3.454-.544-5.524-4.149-4.245-7.402,1.021-2.598,1.737-5.033,2.055-7.051,1.61-10.223-5.372-19.816-15.595-21.426-10.223-1.61-19.816,5.372-21.426,15.595Z"/>
  <path class="cls-10" d="M212.927,515.9c25.765,33.881,70.576,44.073,75.333,22,5.556-25.778-42.211-28.746-43.199-43.074-.047-.687-.018-1.359.07-2.02-10.076-10.084-23.582-15.569-37.444-18.399-6.748,11.727-7.029,25.36,5.239,41.493Z"/>
  <g>
    <polyline class="cls-3" points="311.475 478.526 269.997 494.227 306.446 520.292"/>
    <circle class="cls-14" cx="311.733" cy="478.882" r="10.646"/>
    <circle class="cls-14" cx="306.359" cy="520.166" r="10.646"/>
    <circle class="cls-14" cx="269.997" cy="494.228" r="10.646"/>
  </g>
</svg>