<?xml version="1.0" encoding="UTF-8" standalone="no"?>
<svg
   id="a"
   data-name="Ebene 1"
   viewBox="0 0 367.15 107.95"
   version="1.1"
   sodipodi:docname="2025-06-17-final-bridgit_Header_invers.svg"
   inkscape:version="1.1.2 (0a00cf5339, 2022-02-04)"
   xmlns:inkscape="http://www.inkscape.org/namespaces/inkscape"
   xmlns:sodipodi="http://sodipodi.sourceforge.net/DTD/sodipodi-0.dtd"
   xmlns="http://www.w3.org/2000/svg"
   xmlns:svg="http://www.w3.org/2000/svg">
  <sodipodi:namedview
     id="namedview77"
     pagecolor="#ffffff"
     bordercolor="#000000"
     borderopacity="0.25"
     inkscape:pageshadow="2"
     inkscape:pageopacity="0.0"
     inkscape:pagecheckerboard="0"
     showgrid="false"
     inkscape:zoom="5.0769441"
     inkscape:cx="152.84785"
     inkscape:cy="47.371016"
     inkscape:window-width="2560"
     inkscape:window-height="1376"
     inkscape:window-x="2560"
     inkscape:window-y="1467"
     inkscape:window-maximized="1"
     inkscape:current-layer="a"
     showguides="true"
     inkscape:guide-bbox="true">
    <sodipodi:guide
       position="116.40861,-12.39799"
       orientation="1,0"
       id="guide1167" />
    <sodipodi:guide
       position="190.82621,5.6723669"
       orientation="0,-1"
       id="guide1169" />
    <sodipodi:guide
       position="140.47123,92.843962"
       orientation="0,-1"
       id="guide1171" />
    <sodipodi:guide
       position="107.20873,54.338204"
       orientation="0,-1"
       id="guide1413" />
  </sodipodi:namedview>
  <defs
     id="defs4">
    <style
       id="style2">
      .b {
        fill: #e3f5f5;
      }

      .c {
        fill: #9bc6c5;
      }
    </style>
  </defs>
  <g
     id="g20"
     style="fill:#175a6d;fill-opacity:1"
     transform="matrix(1.2394757,0,0,1.2394757,-28.052285,11.33927)">
    <path
       class="b"
       d="m 116.55,59.21 v -5.88 h 5.99 V 16.65 h -5.99 v -5.89 h 12.47 v 19.5 c 3.32,-3.81 7.39,-5.71 12.22,-5.71 4.83,0 8.54,1.6 11.68,4.79 3.15,3.19 4.72,7.4 4.72,12.62 0,5.22 -1.54,9.23 -4.61,12.66 -3.08,3.42 -7.02,5.14 -11.82,5.14 -2.69,0 -5.15,-0.58 -7.38,-1.74 -2.23,-1.16 -3.83,-2.45 -4.81,-3.87 v 5.05 h -12.47 z m 12.68,-16.79 c 0,3.51 1.07,6.29 3.22,8.34 2.15,2.05 4.63,3.08 7.44,3.08 2.95,0 5.49,-1.09 7.63,-3.27 2.14,-2.18 3.2,-5.11 3.2,-8.78 0,-3.67 -1.06,-6.31 -3.19,-8.27 -2.12,-1.96 -4.61,-2.94 -7.47,-2.94 -2.86,0 -5.32,1.02 -7.52,3.05 -2.21,2.03 -3.31,4.96 -3.31,8.79 z"
       id="path6"
       style="fill:#175a6d;fill-opacity:1" />
    <path
       class="b"
       d="M 164.33,53.32 V 31.38 h -6.79 v -5.89 h 12.08 v 7.59 c 0.74,-1.97 1.78,-3.61 3.1,-4.91 1.32,-1.3 2.72,-2.16 4.2,-2.58 1.47,-0.42 3.49,-0.63 6.04,-0.63 h 1.74 v 6.69 h -1.32 c -3.37,0 -5.88,0.34 -7.54,1.01 -1.66,0.67 -2.89,1.9 -3.69,3.67 -0.8,1.78 -1.2,4.96 -1.2,9.56 v 7.42 h 7.35 v 5.88 h -20.76 v -5.88 h 6.79 z"
       id="path8"
       style="fill:#175a6d;fill-opacity:1" />
    <path
       class="b"
       d="M 190.91,53.32 V 31.38 h -5.22 v -5.89 h 11.84 v 27.83 h 5.22 v 5.88 h -17.06 v -5.88 z m -0.94,-39.28 c 0,-1.07 0.38,-2 1.13,-2.79 0.75,-0.79 1.71,-1.18 2.87,-1.18 1.09,0 2.03,0.38 2.82,1.15 0.79,0.77 1.18,1.71 1.18,2.82 0,1.11 -0.39,2.06 -1.18,2.84 -0.79,0.78 -1.73,1.17 -2.82,1.17 -1.09,0 -2.06,-0.39 -2.84,-1.18 -0.78,-0.79 -1.17,-1.73 -1.17,-2.82 z"
       id="path10"
       style="fill:#175a6d;fill-opacity:1" />
    <path
       class="b"
       d="m 243.73,53.32 v 5.88 h -12.68 v -4.95 c -3.3,3.67 -7.31,5.5 -12.05,5.5 -4.39,0 -8.24,-1.5 -11.56,-4.49 -3.32,-2.99 -4.98,-7.25 -4.98,-12.78 0,-5.53 1.71,-9.92 5.12,-13.13 3.41,-3.2 7.27,-4.81 11.56,-4.81 4.55,0 8.52,1.81 11.91,5.43 V 16.63 h -6.48 v -5.89 h 13.09 V 53.3 h 6.06 z m -34.2,-11 c 0,3.71 1.05,6.57 3.15,8.57 2.1,2 4.61,3 7.54,3 2.93,0 5.35,-1.05 7.54,-3.15 2.19,-2.1 3.29,-5.01 3.29,-8.72 0,-3.71 -1.12,-6.56 -3.36,-8.46 -2.24,-1.9 -4.75,-2.86 -7.54,-2.86 -3,0 -5.51,1.12 -7.56,3.36 -2.04,2.24 -3.07,5 -3.07,8.27 z"
       id="path12"
       style="fill:#175a6d;fill-opacity:1" />
    <path
       class="b"
       d="m 284.19,25.5 v 5.89 h -6.06 V 56.5 c 0,3.39 -0.17,5.9 -0.52,7.54 -0.35,1.64 -1.19,3.31 -2.52,5.01 -1.34,1.71 -3.34,3.14 -6.01,4.3 -2.67,1.16 -5.65,1.74 -8.95,1.74 -4.97,0 -9.4,-1.5 -13.3,-4.49 l 4.32,-4.81 c 2.93,2.27 6.11,3.41 9.54,3.41 1.9,0 3.67,-0.37 5.29,-1.1 1.62,-0.73 2.84,-1.62 3.64,-2.66 0.8,-1.04 1.32,-2.04 1.55,-2.98 0.23,-0.94 0.35,-2.52 0.35,-4.75 v -3.06 c -1.04,1.32 -2.68,2.58 -4.91,3.76 -2.23,1.18 -4.67,1.78 -7.31,1.78 -4.83,0 -8.76,-1.67 -11.81,-5.01 -3.04,-3.34 -4.56,-7.45 -4.56,-12.33 0,-5.34 1.68,-9.65 5.03,-12.94 3.36,-3.29 7.24,-4.93 11.65,-4.93 4.41,0 8.43,1.78 11.91,5.33 V 25.5 h 12.68 z m -34.24,17.2 c 0,3.41 0.99,6.2 2.98,8.36 1.99,2.16 4.52,3.24 7.61,3.24 3.09,0 5.62,-1.08 7.8,-3.26 2.18,-2.17 3.27,-4.96 3.27,-8.38 0,-3.42 -1.09,-6.24 -3.27,-8.34 -2.18,-2.1 -4.71,-3.15 -7.59,-3.15 -2.88,0 -5.4,1.04 -7.56,3.12 -2.16,2.08 -3.24,4.88 -3.24,8.41 z"
       id="path14"
       style="fill:#175a6d;fill-opacity:1" />
    <path
       class="b"
       d="M 290.19,53.32 V 31.38 h -5.22 v -5.89 h 11.84 v 27.83 h 5.22 v 5.88 h -17.06 v -5.88 z m -0.94,-39.28 c 0,-1.07 0.38,-2 1.13,-2.79 0.75,-0.79 1.71,-1.18 2.87,-1.18 1.09,0 2.03,0.38 2.82,1.15 0.79,0.77 1.18,1.71 1.18,2.82 0,1.11 -0.39,2.06 -1.18,2.84 -0.79,0.78 -1.73,1.17 -2.82,1.17 -1.09,0 -2.06,-0.39 -2.84,-1.18 -0.78,-0.79 -1.17,-1.73 -1.17,-2.82 z"
       id="path16"
       style="fill:#175a6d;fill-opacity:1" />
    <path
       class="b"
       d="m 301.2,31.38 v -5.89 h 4.39 V 20.3 l 6.62,-6.06 v 11.25 h 6.23 v 5.89 h -6.23 v 16.37 c 0,2.62 0.14,4.24 0.43,4.86 0.29,0.62 1.02,0.92 2.18,0.92 1.23,0 2.44,-0.23 3.62,-0.7 v 6.02 c -1.7,0.6 -3.39,0.91 -5.08,0.91 -2.02,0 -3.66,-0.45 -4.91,-1.34 -1.25,-0.89 -2.04,-2.01 -2.37,-3.36 -0.33,-1.35 -0.49,-3.67 -0.49,-6.96 V 31.38 Z"
       id="path18"
       style="fill:#175a6d;fill-opacity:1" />
  </g>
  <g
     id="g28"
     style="fill:#175a6d;fill-opacity:1"
     transform="matrix(0.95023578,0,0,0.95023578,-1.7093769,2.6735828)">
    <path
       class="b"
       d="m 67.42,40.29 v 0 c 0,-1.69 0.01,-3.37 0,-5.06 -0.02,-1.87 -1.31,-3.24 -3.03,-3.26 0,0 0,0 0,0 0,0 0,0 0,0 -1.73,-0.02 -3.11,1.29 -3.14,3.15 -0.05,3.44 -0.05,6.89 0,10.33 0.03,1.86 1.41,3.18 3.13,3.15 0,0 0,0 0,0 0,0 0,0 0,0 1.73,-0.03 3.02,-1.39 3.04,-3.25 v 0 c 0.02,-1.69 0,-3.38 0,-5.06 z"
       id="path22"
       style="fill:#175a6d;fill-opacity:1" />
    <path
       class="b"
       d="m 53.81,40.32 v -4.87 c 0,-0.07 0,-0.14 0,-0.21 -0.07,-1.9 -1.31,-3.25 -3.03,-3.28 -1.76,-0.03 -3.1,1.32 -3.12,3.27 -0.04,3.35 -0.04,6.7 0,10.04 0.02,1.97 1.32,3.32 3.07,3.32 1.75,0 3.04,-1.37 3.08,-3.32 v 0 c 0.03,-1.66 0,-3.31 0,-4.97 z"
       id="path24"
       style="fill:#175a6d;fill-opacity:1" />
    <path
       class="b"
       d="m 57.26,2.3 c -28.4,0 -51.42,23.03 -51.42,51.43 0,28.4 23.02,51.42 51.42,51.42 28.4,0 51.42,-23.02 51.42,-51.42 C 108.68,25.33 85.66,2.3 57.26,2.3 Z m 23.32,13.77 c 1.48,-1.56 3.96,-1.85 5.78,-0.66 1.87,1.22 2.77,3.68 1.66,5.61 -1.13,1.97 -2.69,3.7 -4.05,5.54 -0.1,-0.06 -0.2,-0.12 -0.3,-0.18 -0.55,-3.19 -1.58,-6.21 -3.27,-8.98 -0.36,-0.58 -0.22,-0.91 0.18,-1.33 z M 28.77,15.38 c 2.13,-1.35 4.91,-0.73 6.25,1.43 -1.81,2.95 -3.01,6.16 -3.61,9.73 -0.26,-0.22 -0.45,-0.34 -0.58,-0.51 -1.13,-1.4 -2.3,-2.76 -3.35,-4.21 -1.52,-2.12 -0.89,-5.04 1.29,-6.44 z M 14.49,50.77 c -2.59,-0.68 -4.03,-3.11 -3.38,-5.65 0.62,-2.39 3.06,-3.83 5.57,-3.18 4.66,1.2 9.36,2.06 14.17,2.22 0.67,0.02 0.83,0.27 0.93,0.9 0.41,2.51 0.92,5.01 1.41,7.62 -4.86,0.5 -9.69,0.07 -14.48,-0.9 -1.42,-0.29 -2.82,-0.64 -4.22,-1.01 z m 79.99,33.8 c -1.63,1.21 -3.39,1.18 -5.16,0.22 -7.62,-4.16 -13.86,-9.84 -18.76,-17.01 -1.15,-1.68 -2.39,-3.3 -3.6,-4.94 -0.86,-1.16 -1.92,-1.56 -3.05,-1.18 -1.12,0.38 -1.72,1.32 -1.72,2.77 0,9.77 -0.06,19.54 0.02,29.31 0.04,4.4 -3.47,5.47 -6.79,4.47 -1.61,-0.48 -2.51,-2.01 -2.52,-3.79 0,-4.97 0,-9.94 0,-14.91 0,-4.97 0,-10.08 0,-15.12 0,-1.89 -1.32,-3.17 -3.01,-2.76 -0.69,0.17 -1.4,0.75 -1.85,1.33 -2.49,3.22 -4.81,6.58 -7.37,9.74 -4.19,5.16 -9.43,9.07 -15.24,12.24 -2.18,1.19 -4.9,0.38 -6.11,-1.76 -1.22,-2.15 -0.58,-4.86 1.6,-6.14 3.63,-2.14 7.15,-4.43 10.34,-7.21 3.32,-2.89 6.31,-6.07 8.98,-9.57 0.91,-1.19 1.02,-2.3 0.26,-3.61 C 38.32,52.88 37.21,48.73 36.84,44.46 36.41,39.55 36.05,34.6 36.24,29.69 36.72,17.1 47.78,7.99 60.25,9.6 c 9.77,1.27 17.4,8.74 18.41,18.45 0.39,3.72 0.16,7.52 0.02,11.27 -0.17,4.35 -0.72,8.66 -2.18,12.8 -0.54,1.52 -1.16,3.03 -1.94,4.44 -0.78,1.41 -0.65,2.55 0.3,3.8 5.09,6.63 11.19,12.08 18.48,16.19 1.34,0.76 2.46,1.67 2.82,3.25 v 0 c 0.44,1.94 -0.1,3.59 -1.7,4.77 z m 6.81,-34.06 c -6.34,1.95 -12.82,2.8 -19.46,2.18 0.58,-2.86 1.13,-5.59 1.71,-8.46 1.38,-0.11 2.9,-0.12 4.37,-0.37 3.39,-0.57 6.77,-1.2 10.13,-1.9 2.83,-0.59 5.18,0.6 5.89,3.13 0.62,2.22 -0.47,4.74 -2.65,5.41 z"
       id="path26"
       style="fill:#175a6d;fill-opacity:1" />
  </g>
</svg>
